{
    "asset" : {
        "generator" : "Khronos glTF Blender I/O v1.4.40",
        "version" : "2.0"
    },
    "scene" : 0,
    "scenes" : [
        {
            "name" : "Scene",
            "nodes" : [
                0,
                1,
                2
            ]
        }
    ],
    "nodes" : [
        {
            "name" : "Light",
            "rotation" : [
                0.16907575726509094,
                0.27217137813568115,
                0.7558803558349609,
                0.570947527885437
            ],
            "translation" : [
                -14.565956115722656,
                -8.44297981262207,
                15.798807144165039
            ]
        },
        {
            "camera" : 0,
            "name" : "Camera",
            "rotation" : [
                0.483536034822464,
                0.20870360732078552,
                0.33687159419059753,
                0.7804827094078064
            ],
            "translation" : [
                7.358891487121582,
                -6.925790786743164,
                4.958309173583984
            ]
        },
        {
            "mesh" : 0,
            "name" : "Cube.001",
            "rotation" : [
                -0.7071068286895752,
                0,
                0,
                0.7071068286895752
            ],
            "scale" : [
                0.992229163646698,
                0.992229163646698,
                0.992229163646698
            ],
            "translation" : [
                0,
                -0.2320660948753357,
                0.05352981388568878
            ]
        }
    ],
    "cameras" : [
        {
            "name" : "Camera",
            "perspective" : {
                "aspectRatio" : 1.7777777777777777,
                "yfov" : 0.39959652046304894,
                "zfar" : 100,
                "znear" : 0.10000000149011612
            },
            "type" : "perspective"
        }
    ],
    "materials" : [
        {
            "doubleSided" : true,
            "name" : "\u30de\u30c6\u30ea\u30a2\u30eb",
            "pbrMetallicRoughness" : {
                "baseColorTexture" : {
                    "index" : 0,
                    "texCoord" : 0
                },
                "metallicFactor" : 0,
                "roughnessFactor" : 0.5
            }
        }
    ],
    "meshes" : [
        {
            "name" : "Cube.001",
            "primitives" : [
                {
                    "attributes" : {
                        "POSITION" : 0,
                        "NORMAL" : 1,
                        "TEXCOORD_0" : 2,
                        "TEXCOORD_1" : 3
                    },
                    "indices" : 4,
                    "material" : 0
                }
            ]
        }
    ],
    "textures" : [
        {
            "sampler" : 0,
            "source" : 0
        }
    ],
    "images" : [
        {
            "bufferView" : 5,
            "mimeType" : "image/png",
            "name" : "\u725b\u4e73\u30d1\u30c3\u30af5"
        }
    ],
    "accessors" : [
        {
            "bufferView" : 0,
            "componentType" : 5126,
            "count" : 1310,
            "max" : [
                7.054821968078613,
                7.054821968078613,
                15.396710395812988
            ],
            "min" : [
                -7.054821968078613,
                -7.054821968078613,
                -8.791250228881836
            ],
            "type" : "VEC3"
        },
        {
            "bufferView" : 1,
            "componentType" : 5126,
            "count" : 1310,
            "type" : "VEC3"
        },
        {
            "bufferView" : 2,
            "componentType" : 5126,
            "count" : 1310,
            "type" : "VEC2"
        },
        {
            "bufferView" : 3,
            "componentType" : 5126,
            "count" : 1310,
            "type" : "VEC2"
        },
        {
            "bufferView" : 4,
            "componentType" : 5123,
            "count" : 3588,
            "type" : "SCALAR"
        }
    ],
    "bufferViews" : [
        {
            "buffer" : 0,
            "byteLength" : 15720,
            "byteOffset" : 0
        },
        {
            "buffer" : 0,
            "byteLength" : 15720,
            "byteOffset" : 15720
        },
        {
            "buffer" : 0,
            "byteLength" : 10480,
            "byteOffset" : 31440
        },
        {
            "buffer" : 0,
            "byteLength" : 10480,
            "byteOffset" : 41920
        },
        {
            "buffer" : 0,
            "byteLength" : 7176,
            "byteOffset" : 52400
        },
        {
            "buffer" : 0,
            "byteLength" : 592675,
            "byteOffset" : 59576
        }
    ],
    "samplers" : [
        {
            "magFilter" : 9729,
            "minFilter" : 9986
        }
    ],
    "buffers" : [
        {
            "byteLength" : 652252,
            "uri" : "data:application/octet-stream;base64,"
        }
    ]
}
